<?xml version="1.0" encoding="UTF-8"?>
<svg version="1.1" xmlns="http://www.w3.org/2000/svg" width="200" height="200">
<path d="M0 0 C66 0 132 0 200 0 C200 66 200 132 200 200 C134 200 68 200 0 200 C0 134 0 68 0 0 Z " fill="#611FD5" transform="translate(0,0)"/>
<path d="M0 0 C11.16281276 8.73987666 19.6892297 19.46603233 22.71875 33.65234375 C24.60208198 49.37293429 21.58699113 64.03856164 11.890625 76.76953125 C2.45045834 87.62572291 -9.47065957 95.70346569 -24.1328125 97.22070312 C-40.46645763 98.09045499 -53.38266811 94.1954003 -66.1875 83.75 C-75.15949188 75.46537847 -81.99096007 63.33818886 -83.19287109 51.02392578 C-83.7895402 35.62986274 -81.68082933 23.55115609 -72 11 C-70.9171875 9.4840625 -70.9171875 9.4840625 -69.8125 7.9375 C-52.0314511 -12.38369874 -21.96253628 -13.84972605 0 0 Z " fill="#F7F4FD" transform="translate(130,65)"/>
<path d="M0 0 C3.17766343 3.67395794 5.15702947 7.29065395 7.1875 11.6875 C9.39657348 16.24538634 9.39657348 16.24538634 13.3125 19.11328125 C14.85936254 19.36515525 16.4156989 19.56586099 17.9765625 19.70703125 C20 20 20 20 22.5625 22.1875 C24.39730641 25.77733862 24.49851246 28.01190033 24 32 C21.8 36.6 21.8 36.6 19 38 C15.61571425 38.41271777 12.37666496 38.50105351 9 38 C6.375 35.625 6.375 35.625 5 33 C5 32.34 5 31.68 5 31 C-3.25 31 -11.5 31 -20 31 C-18.70826194 28.41652388 -17.65750364 28.05475844 -15 27 C-12.70996094 26.77294922 -12.70996094 26.77294922 -10.234375 26.8046875 C-9.34492188 26.81113281 -8.45546875 26.81757813 -7.5390625 26.82421875 C-6.61867187 26.84097656 -5.69828125 26.85773438 -4.75 26.875 C-3.81414062 26.88402344 -2.87828125 26.89304688 -1.9140625 26.90234375 C0.39088657 26.92586364 2.6953116 26.95873147 5 27 C1.13023937 22.99860697 1.13023937 22.99860697 -3.3125 19.6875 C-4.199375 19.130625 -5.08625 18.57375 -6 18 C-5.67 17.01 -5.34 16.02 -5 15 C-1.50155614 15.63389235 0.84086876 17.05177694 3.75 19.0625 C4.54921875 19.61035156 5.3484375 20.15820312 6.171875 20.72265625 C6.77515625 21.14417969 7.3784375 21.56570312 8 22 C7.4225 21.0821875 6.845 20.164375 6.25 19.21875 C5.49907635 17.97972598 4.74912799 16.74011052 4 15.5 C3.6184375 14.89929688 3.236875 14.29859375 2.84375 13.6796875 C-0.0038642 8.89976367 -0.39253126 5.54450398 0 0 Z " fill="#F6F3FD" transform="translate(153,124)"/>
<path d="M0 0 C0.66 0 1.32 0 2 0 C1.50839669 5.43533241 0.12206673 9.2029005 -2.5625 13.9375 C-3.52349609 15.65259766 -3.52349609 15.65259766 -4.50390625 17.40234375 C-4.99761719 18.25957031 -5.49132812 19.11679688 -6 20 C-2.7 17.69 0.6 15.38 4 13 C5.32 13.66 6.64 14.32 8 15 C5.24829249 17.9555377 2.58029701 20.11563315 -1 22 C-1.66 22 -2.32 22 -3 22 C-3 22.99 -3 23.98 -3 25 C-2.42032471 24.97905273 -1.84064941 24.95810547 -1.2434082 24.93652344 C1.40004924 24.85303193 4.0432288 24.80123847 6.6875 24.75 C8.05551758 24.69972656 8.05551758 24.69972656 9.45117188 24.6484375 C10.78051758 24.62910156 10.78051758 24.62910156 12.13671875 24.609375 C12.94842529 24.58842773 13.76013184 24.56748047 14.59643555 24.54589844 C17 25 17 25 22 29 C13.75 29 5.5 29 -3 29 C-3.99 31.475 -3.99 31.475 -5 34 C-7.46057182 36.46057182 -8.40721905 36.37747115 -11.8125 36.5 C-14.59196252 36.43966434 -16.39434751 36.37569172 -18.76953125 34.90234375 C-21.21478673 32.25977658 -22.01032044 29.94117349 -22.625 26.4375 C-21.84686049 22.15773271 -20.29670019 20.73384894 -17 18 C-16.67 17.67 -16.34 17.34 -16 17 C-13.66702567 16.95907063 -11.33294775 16.95758277 -9 17 C-8.7421875 16.30519531 -8.484375 15.61039063 -8.21875 14.89453125 C-6.86111864 11.67015678 -5.24670987 8.71833768 -3.5 5.6875 C-2.58734375 4.08455078 -2.58734375 4.08455078 -1.65625 2.44921875 C-1.1096875 1.64097656 -0.563125 0.83273438 0 0 Z " fill="#F7F4FD" transform="translate(45,126)"/>
<path d="M0 0 C3.4375 1.9375 3.4375 1.9375 6 5 C6.77439783 9.25174191 6.35877761 12.92366716 5 17 C5.97718985 19.56156693 5.97718985 19.56156693 7.4375 22.1875 C7.91058594 23.08855469 8.38367188 23.98960938 8.87109375 24.91796875 C9.24363281 25.60503906 9.61617187 26.29210937 10 27 C7.6328125 26.6875 7.6328125 26.6875 5 26 C3.61061923 24.03852126 2.2739589 22.03833424 1 20 C0.01 19.67 -0.98 19.34 -2 19 C-2 20.98 -2 22.96 -2 25 C-3.32 25 -4.64 25 -6 25 C-6 23.02 -6 21.04 -6 19 C-7.81860483 20.65327712 -8.92938686 21.82851095 -9.875 24.125 C-11 26 -11 26 -13.625 26.75 C-14.40875 26.8325 -15.1925 26.915 -16 27 C-15.05272536 24.56415094 -14.14896887 22.25089494 -12.8125 20 C-11.72033525 17.31159445 -12.34727273 15.80672725 -13 13 C-13.37856217 8.76010374 -13.4772349 6.73176018 -11.125 3.125 C-7.54896931 -0.45103069 -5.00281714 -0.50028171 0 0 Z " fill="#F9F7FD" transform="translate(103,28)"/>
<path d="M0 0 C2 1 2 1 2.8515625 3.046875 C6.43638662 15.57565426 5.46402318 25.82357964 1 38 C-3.68592621 33.31407379 -4.2235117 25.90985963 -4.375 19.5625 C-4.22274788 12.79930068 -3.04829872 6.09659744 0 0 Z " fill="#6B2EE2" transform="translate(143,90)"/>
<path d="M0 0 C-4.37502849 9.91961906 -15.31683622 14.08102994 -24.65625 18.16015625 C-27.5296873 19.18980462 -29.97142948 19.14086375 -33 19 C-28.07333081 9.61586821 -18.27106318 4.73042729 -8.82421875 0.8125 C-5.75766131 -0.06971846 -3.1746857 -0.150059 0 0 Z " fill="#682ADB" transform="translate(138,87)"/>
<path d="M0 0 C4.171675 3.7961957 4.86330391 8.12243905 5.265625 13.6484375 C5.22923196 22.32817661 5.12961881 30.17454587 1 38 C-3.2862867 33.7137133 -3.27039082 26.76882106 -3.32226562 20.98242188 C-3.31904297 20.18384766 -3.31582031 19.38527344 -3.3125 18.5625 C-3.32861328 17.76779297 -3.34472656 16.97308594 -3.36132812 16.15429688 C-3.36610242 10.28669002 -2.15198339 5.44468897 0 0 Z " fill="#682AD0" transform="translate(55,90)"/>
<path d="M0 0 C5.48457475 -0.46840312 8.99925489 0.99273198 13.75 3.4375 C14.44867188 3.79150879 15.14734375 4.14551758 15.8671875 4.51025391 C22.03883631 7.77115045 27.40513663 11.67614389 32 17 C32 17.66 32 18.32 32 19 C20.14506958 18.60483565 9.2014629 12.49375822 1 4 C0.23046875 1.7578125 0.23046875 1.7578125 0 0 Z " fill="#6727D2" transform="translate(62,87)"/>
<path d="M0 0 C-5.07731549 9.46226977 -15.51617572 14.45732381 -25.1875 18.25 C-27.93341913 18.9822451 -30.17436184 19.16621401 -33 19 C-28.4695169 9.6558786 -19.16765277 4.90280075 -10 1 C-6.60370674 -0.03980717 -3.55178142 -0.0807223 0 0 Z " fill="#6728CD" transform="translate(94,62)"/>
<path d="M0 0 C11.89928166 0.39664272 20.55657168 6.02592504 29.13671875 13.94921875 C31 16 31 16 32 19 C20.15861104 18.76317222 10.05839414 11.72978616 1.6953125 3.91796875 C0 2 0 2 0 0 Z " fill="#6728D6" transform="translate(106,62)"/>
<path d="M0 0 C-7.25778935 9.2921697 -16.51369262 15.9369847 -28 19 C-30.875 19.125 -30.875 19.125 -33 19 C-28.4735962 9.9471924 -18.48072076 4.00959761 -9.25 0.625 C-6.07422799 0.01427461 -3.22495021 -0.15731464 0 0 Z " fill="#6627E4" transform="translate(138,138)"/>
<path d="M0 0 C-3.5870943 8.32057956 -12.12154754 13.09994158 -19.98046875 16.8125 C-24.24011229 18.48770263 -28.46930578 19.41862773 -33 20 C-28.67789588 10.05475021 -17.47892485 4.94955202 -8 1 C-5.1643632 0.28298898 -2.93061402 0 0 0 Z " fill="#6727D7" transform="translate(94,112)"/>
<path d="M0 0 C11.37916956 0.19619258 20.94704046 5.53700312 28.875 13.375 C33 17.76527331 33 17.76527331 33 19 C20.56859915 18.7856655 10.52035088 12.16129239 1.6953125 3.91796875 C0 2 0 2 0 0 Z " fill="#6728DC" transform="translate(62,138)"/>
<path d="M0 0 C5.90689516 7.54140587 5.6640774 15.71282801 5 25 C3.11994609 35.88005391 3.11994609 35.88005391 0 39 C-2.55165679 32.57435859 -3.48633817 26.95751357 -3.375 20.0625 C-3.36919922 19.18948242 -3.36339844 18.31646484 -3.35742188 17.41699219 C-3.23337332 11.26280545 -2.51335238 5.68496371 0 0 Z " fill="#682ADE" transform="translate(99,115)"/>
<path d="M0 0 C13.9870975 2.2192472 24.23580379 7.77917303 33 19 C26.76281213 19.38594754 22.95743213 18.58494738 17.5625 15.5 C16.59352783 14.96403198 16.59352783 14.96403198 15.60498047 14.41723633 C2.26288453 6.78865359 2.26288453 6.78865359 0 0 Z " fill="#6627DF" transform="translate(105,112)"/>
<path d="M0 0 C2 1 2 1 2.8515625 2.828125 C6.14816502 13.15081977 6.69560646 25.24462149 1.9296875 35.24609375 C1.62289062 35.82488281 1.31609375 36.40367188 1 37 C-3.31701706 32.68298294 -3.27357811 26.45982935 -3.32226562 20.66601562 C-3.31904297 19.80685547 -3.31582031 18.94769531 -3.3125 18.0625 C-3.32861328 17.20720703 -3.34472656 16.35191406 -3.36132812 15.47070312 C-3.36577662 9.63873084 -2.34602228 5.34199795 0 0 Z " fill="#6727D4" transform="translate(99,65)"/>
<path d="M0 0 C2.79243009 1.39621504 5.2281865 2.747959 7.8125 4.4375 C11.42651395 6.72931373 15.02473423 8.4264573 19 10 C16.26362034 11.82425311 13.51828058 13.37988456 10.625 14.9375 C7.01794977 16.88014 3.51807329 18.88915603 0 21 C0 14.07 0 7.14 0 0 Z " fill="#6728E1" transform="translate(108,124)"/>
<path d="M0 0 C2.475 1.6396875 2.475 1.6396875 5 3.3125 C9.57992675 6.23938721 13.83716001 8.34399472 19 10 C17.50264592 12.99470816 15.17408681 13.51823928 12.1875 14.9375 C8.46925377 16.70830911 5.28043741 18.53045723 2 21 C1.34 21 0.68 21 0 21 C0 14.07 0 7.14 0 0 Z " fill="#6728D7" transform="translate(108,73)"/>
<path d="M0 0 C9 4.5 9 4.5 18 9 C18 9.66 18 10.32 18 11 C17.20335938 11.38671875 16.40671875 11.7734375 15.5859375 12.171875 C14.52632812 12.69265625 13.46671875 13.2134375 12.375 13.75 C11.33085938 14.26046875 10.28671875 14.7709375 9.2109375 15.296875 C6.02072363 16.9890079 3.0047015 18.99686567 0 21 C0 14.07 0 7.14 0 0 Z " fill="#6728D3" transform="translate(64,99)"/>
<path d="M0 0 C0.78688445 2.77723925 1.11949924 5.22610077 1.09765625 8.109375 C1.09443359 8.86347656 1.09121094 9.61757812 1.08789062 10.39453125 C1.07951172 11.17183594 1.07113281 11.94914063 1.0625 12.75 C1.05798828 13.54277344 1.05347656 14.33554688 1.04882812 15.15234375 C1.03708565 17.10159508 1.01915146 19.05080738 1 21 C-1.25195063 19.73252511 -3.50155747 18.46117132 -5.75 17.1875 C-6.38421875 16.83107422 -7.0184375 16.47464844 -7.671875 16.10742188 C-10.94804537 14.24751265 -14.04985101 12.36160916 -17 10 C-15.94039063 9.44570312 -14.88078125 8.89140625 -13.7890625 8.3203125 C-12.40094005 7.58873445 -11.01292477 6.85695302 -9.625 6.125 C-8.92632812 5.76019531 -8.22765625 5.39539063 -7.5078125 5.01953125 C-3.48015204 2.89684905 -3.48015204 2.89684905 0 0 Z " fill="#6727DB" transform="translate(90,124)"/>
<path d="M0 0 C1.1482685 2.296537 1.11561175 3.58313167 1.09765625 6.1328125 C1.09443359 6.93847656 1.09121094 7.74414062 1.08789062 8.57421875 C1.07951172 9.41597656 1.07113281 10.25773437 1.0625 11.125 C1.05798828 11.97449219 1.05347656 12.82398437 1.04882812 13.69921875 C1.03702874 15.79950909 1.01909306 17.8997633 1 20 C-5 17 -11 14 -17 11 C-17 10.34 -17 9.68 -17 9 C-16.443125 8.76925781 -15.88625 8.53851563 -15.3125 8.30078125 C-9.87075482 5.97517056 -4.92627992 3.27523788 0 0 Z " fill="#6626DE" transform="translate(134,99)"/>
<path d="M0 0 C0.66 0 1.32 0 2 0 C2 6.6 2 13.2 2 20 C-4.75 16.0625 -4.75 16.0625 -6.85449219 14.82446289 C-9.88811642 13.0735208 -12.58463158 11.73607078 -16 11 C-16 10.34 -16 9.68 -16 9 C-15.01257813 8.51789063 -14.02515625 8.03578125 -13.0078125 7.5390625 C-11.7134369 6.90125423 -10.41917179 6.26322171 -9.125 5.625 C-8.47402344 5.30789062 -7.82304688 4.99078125 -7.15234375 4.6640625 C-4.41822959 3.31109879 -2.17227482 2.17227482 0 0 Z " fill="#6727D1" transform="translate(89,74)"/>
<path d="M0 0 C0.66 0 1.32 0 2 0 C2 1.98 2 3.96 2 6 C3.32 6 4.64 6 6 6 C6 4.02 6 2.04 6 0 C7.8125 0.1875 7.8125 0.1875 10 1 C11.625 3.4375 11.625 3.4375 13 6 C13.66 6.66 14.32 7.32 15 8 C14.67 8.66 14.34 9.32 14 10 C7.73 10 1.46 10 -5 10 C-5.33 9.01 -5.66 8.02 -6 7 C-5.01 7 -4.02 7 -3 7 C-2.690625 6.030625 -2.38125 5.06125 -2.0625 4.0625 C-1 1 -1 1 0 0 Z " fill="#6A2CCF" transform="translate(95,47)"/>
</svg>
