<?xml version="1.0" encoding="UTF-8"?>
<svg version="1.1" xmlns="http://www.w3.org/2000/svg" width="200" height="200">
<path d="M0 0 C66 0 132 0 200 0 C200 66 200 132 200 200 C134 200 68 200 0 200 C0 134 0 68 0 0 Z " fill="#C0F4C3" transform="translate(0,0)"/>
<path d="M0 0 C33 0 66 0 100 0 C99.32401631 3.37991843 98.61026682 6.53642365 97.65234375 9.82421875 C97.38091553 10.75709717 97.1094873 11.68997559 96.82983398 12.65112305 C96.53536377 13.65312744 96.24089355 14.65513184 95.9375 15.6875 C95.62949463 16.74042236 95.32148926 17.79334473 95.00415039 18.87817383 C92.39283433 27.76058016 89.67000813 36.60687699 86.92504883 45.44873047 C84.46421301 53.4054129 82.12974163 61.39166954 79.90209961 69.41674805 C78.79360302 73.38001397 77.64267279 77.21571175 76 81 C75.34 81 74.68 81 74 81 C70.02428573 68.74230859 66.20592177 56.45278403 62.63769531 44.07006836 C60.28892896 35.93327063 57.83329217 27.8322351 55.30859375 19.74829102 C53.59643548 14.20346242 52.18490322 8.68175543 51 3 C50.34 3 49.68 3 49 3 C48.82984375 3.78761719 48.6596875 4.57523438 48.484375 5.38671875 C48.24203125 6.47597656 47.9996875 7.56523438 47.75 8.6875 C47.51796875 9.74324219 47.2859375 10.79898438 47.046875 11.88671875 C45.65312492 17.67161208 43.77876557 23.32491013 42 29 C41.35605601 31.07269472 40.71281083 33.14560669 40.0703125 35.21875 C39.75271973 36.24331299 39.43512695 37.26787598 39.10791016 38.32348633 C35.9117281 48.65272746 32.79502168 58.99513994 29.90283203 69.4140625 C28.79410935 73.3782464 27.64304941 77.21484411 26 81 C25.34 81 24.68 81 24 81 C20.02416978 68.74195111 16.21218774 56.4506065 12.63549805 44.07006836 C10.55743034 36.88519156 8.42657336 29.71815897 6.25 22.5625 C5.96833984 21.63381104 5.68667969 20.70512207 5.39648438 19.74829102 C3.87398108 14.75882244 2.2796604 9.80946555 0.54199219 4.89038086 C0 3 0 3 0 0 Z " fill="#BCAADA" transform="translate(50,58)"/>
</svg>
