<?xml version="1.0" encoding="UTF-8"?>
<svg version="1.1" xmlns="http://www.w3.org/2000/svg" width="200" height="200">
<path d="M0 0 C1.96809944 -0.00135076 3.93619856 -0.00329469 5.90429688 -0.00579834 C10.00914722 -0.00873029 14.11390993 -0.00451451 18.21875 0.00488281 C23.44664488 0.01627611 28.67433431 0.00970623 33.90222168 -0.00226212 C37.96030184 -0.0095331 42.01833432 -0.00716888 46.07641602 -0.00200653 C48.0026858 -0.00068448 49.9289601 -0.0022663 51.85522461 -0.00696564 C67.74942254 -0.03724387 81.37425128 0.27968976 95.1875 8.953125 C104.6145993 18.3802243 108.57795364 28.94101925 108.64663696 42.12026978 C108.64618378 42.99936005 108.64573059 43.87845032 108.64526367 44.78417969 C108.64862228 45.72484283 108.6519809 46.66550598 108.65544128 47.63467407 C108.66491766 50.73562959 108.66689284 53.83653091 108.66796875 56.9375 C108.671184 59.10215273 108.67454828 61.26680524 108.67805481 63.43145752 C108.68403806 67.96733097 108.68589557 72.50318539 108.68530273 77.0390625 C108.68520124 82.8335404 108.69884357 88.6278954 108.71607494 94.42234421 C108.7272286 98.89378411 108.72922089 103.36519464 108.72869301 107.83664703 C108.72986843 109.97194084 108.73426547 112.10723553 108.74202538 114.24251556 C108.75189179 117.23826032 108.74892091 120.23374264 108.74291992 123.22949219 C108.74853943 124.10048553 108.75415894 124.97147888 108.75994873 125.86886597 C108.70165376 137.39951303 106.31619198 147.84738727 98.38671875 156.59765625 C88.36323465 165.92867168 77.93101252 168.57796031 64.48901367 168.5402832 C63.53161789 168.54539413 62.57422211 168.55050507 61.58781433 168.55577087 C58.44780079 168.56958039 55.30800891 168.56871644 52.16796875 168.56640625 C49.96755391 168.57029826 47.76713982 168.57463396 45.56672668 168.57939148 C40.96299806 168.58683539 36.35934614 168.58657592 31.75561523 168.58129883 C25.88175741 168.57551038 20.00821554 168.59242928 14.1344099 168.6156435 C9.59168184 168.63043961 5.0490288 168.63124449 0.5062809 168.62813377 C-1.65806389 168.62864415 -3.82241319 168.63382815 -5.98673439 168.64394569 C-36.0192539 168.76710947 -36.0192539 168.76710947 -46.5 159.265625 C-46.5 158.605625 -46.5 157.945625 -46.5 157.265625 C-47.39332031 156.91757812 -47.39332031 156.91757812 -48.3046875 156.5625 C-53.19513358 153.67348203 -55.67676306 147.22571296 -57.8125 142.140625 C-59.41843631 135.42489134 -59.64900757 128.78699838 -59.64526367 121.91894531 C-59.64862228 121.02021698 -59.6519809 120.12148865 -59.65544128 119.19552612 C-59.66488574 116.24491975 -59.66689118 113.29437052 -59.66796875 110.34375 C-59.67118608 108.27642799 -59.6745505 106.20910621 -59.67805481 104.14178467 C-59.68402999 99.81456983 -59.68589639 95.48737492 -59.68530273 91.16015625 C-59.68520126 85.64169713 -59.69884576 80.12336709 -59.71607494 74.60493851 C-59.72724696 70.33587061 -59.72922034 66.06683339 -59.72869301 61.79775238 C-59.72986559 59.76459051 -59.73424635 57.73142766 -59.74202538 55.69828033 C-59.85174057 24.05926104 -59.85174057 24.05926104 -47.75 10.953125 C-34.58334045 -1.36728422 -16.85961814 -0.04113091 0 0 Z " fill="#E4E4E4" transform="translate(75.5,17.734375)"/>
<path d="M0 0 C11.22 0 22.44 0 34 0 C34 14.46454781 29.91222745 24.01649122 19.83203125 34.1875 C10.44952482 42.97249741 0.78637431 46.41308122 -12 46.125 C-13.16208984 46.11146484 -13.16208984 46.11146484 -14.34765625 46.09765625 C-16.23190843 46.07439388 -18.11599832 46.0385364 -20 46 C-20 46.99 -20 47.98 -20 49 C-22.31 49 -24.62 49 -27 49 C-27 34.48 -27 19.96 -27 5 C-24.69 5 -22.38 5 -20 5 C-20 6.32 -20 7.64 -20 9 C-17.56077639 8.91299202 -15.12521586 8.80613998 -12.6875 8.6875 C-11.65206055 8.65366211 -11.65206055 8.65366211 -10.59570312 8.61914062 C-6.65394389 8.41531708 -6.65394389 8.41531708 -3.14453125 6.76953125 C-1.64300066 4.57248755 -1.64300066 4.57248755 0 0 Z " fill="#040404" transform="translate(83,101)"/>
<path d="M0 0 C1.96809944 -0.00135076 3.93619856 -0.00329469 5.90429688 -0.00579834 C10.00914722 -0.00873029 14.11390993 -0.00451451 18.21875 0.00488281 C23.44664488 0.01627611 28.67433431 0.00970623 33.90222168 -0.00226212 C37.96030184 -0.0095331 42.01833432 -0.00716888 46.07641602 -0.00200653 C48.0026858 -0.00068448 49.9289601 -0.0022663 51.85522461 -0.00696564 C67.74942254 -0.03724387 81.37425128 0.27968976 95.1875 8.953125 C104.6145993 18.3802243 108.57795364 28.94101925 108.64663696 42.12026978 C108.64618378 42.99936005 108.64573059 43.87845032 108.64526367 44.78417969 C108.64862228 45.72484283 108.6519809 46.66550598 108.65544128 47.63467407 C108.66491766 50.73562959 108.66689284 53.83653091 108.66796875 56.9375 C108.671184 59.10215273 108.67454828 61.26680524 108.67805481 63.43145752 C108.68403806 67.96733097 108.68589557 72.50318539 108.68530273 77.0390625 C108.68520124 82.8335404 108.69884357 88.6278954 108.71607494 94.42234421 C108.7272286 98.89378411 108.72922089 103.36519464 108.72869301 107.83664703 C108.72986843 109.97194084 108.73426547 112.10723553 108.74202538 114.24251556 C108.75189179 117.23826032 108.74892091 120.23374264 108.74291992 123.22949219 C108.74853943 124.10048553 108.75415894 124.97147888 108.75994873 125.86886597 C108.70165376 137.39951303 106.31619198 147.84738727 98.38671875 156.59765625 C88.36323465 165.92867168 77.93101252 168.57796031 64.48901367 168.5402832 C63.53161789 168.54539413 62.57422211 168.55050507 61.58781433 168.55577087 C58.44780079 168.56958039 55.30800891 168.56871644 52.16796875 168.56640625 C49.96755391 168.57029826 47.76713982 168.57463396 45.56672668 168.57939148 C40.96299806 168.58683539 36.35934614 168.58657592 31.75561523 168.58129883 C25.88175741 168.57551038 20.00821554 168.59242928 14.1344099 168.6156435 C9.59168184 168.63043961 5.0490288 168.63124449 0.5062809 168.62813377 C-1.65806389 168.62864415 -3.82241319 168.63382815 -5.98673439 168.64394569 C-36.0192539 168.76710947 -36.0192539 168.76710947 -46.5 159.265625 C-46.5 158.605625 -46.5 157.945625 -46.5 157.265625 C-47.39332031 156.91757812 -47.39332031 156.91757812 -48.3046875 156.5625 C-53.19513358 153.67348203 -55.67676306 147.22571296 -57.8125 142.140625 C-59.41843631 135.42489134 -59.64900757 128.78699838 -59.64526367 121.91894531 C-59.64862228 121.02021698 -59.6519809 120.12148865 -59.65544128 119.19552612 C-59.66488574 116.24491975 -59.66689118 113.29437052 -59.66796875 110.34375 C-59.67118608 108.27642799 -59.6745505 106.20910621 -59.67805481 104.14178467 C-59.68402999 99.81456983 -59.68589639 95.48737492 -59.68530273 91.16015625 C-59.68520126 85.64169713 -59.69884576 80.12336709 -59.71607494 74.60493851 C-59.72724696 70.33587061 -59.72922034 66.06683339 -59.72869301 61.79775238 C-59.72986559 59.76459051 -59.73424635 57.73142766 -59.74202538 55.69828033 C-59.85174057 24.05926104 -59.85174057 24.05926104 -47.75 10.953125 C-34.58334045 -1.36728422 -16.85961814 -0.04113091 0 0 Z M-49.85431671 16.90947056 C-54.91514553 24.15515044 -56.09376788 32.2718241 -56.01757812 40.90258789 C-56.0245874 41.90250259 -56.03159668 42.9024173 -56.03881836 43.93263245 C-56.05626456 47.20147387 -56.04482394 50.46943274 -56.03125 53.73828125 C-56.03394853 56.03031071 -56.03783396 58.32233905 -56.04284668 60.61436462 C-56.04872346 65.40293344 -56.04023656 70.19120252 -56.02148438 74.97973633 C-55.99868341 81.0982321 -56.01183737 87.21602635 -56.03577423 93.3344965 C-56.05027027 98.06246672 -56.04560893 102.79027226 -56.03526306 107.5182476 C-56.03260698 109.77355471 -56.03582587 112.02887707 -56.04518127 114.28416634 C-56.05541095 117.44252929 -56.03975614 120.59977619 -56.01757812 123.75805664 C-56.02567505 124.67729919 -56.03377197 125.59654175 -56.04211426 126.54364014 C-55.90422083 137.21542168 -51.51722389 145.91038569 -44.5 153.828125 C-33.16000682 164.30292197 -19.30694964 162.95847857 -4.859375 162.82421875 C-2.56398793 162.81996163 -0.26859653 162.81763929 2.02679443 162.81715393 C6.81786863 162.8110134 11.60847076 162.78842897 16.39941406 162.75268555 C22.52801568 162.70731342 28.65619234 162.69265224 34.78494644 162.68894863 C39.51711174 162.68451293 44.24918874 162.66919808 48.98131561 162.6500721 C51.24105864 162.64122129 53.50081096 162.63447616 55.76056671 162.62991142 C58.91898817 162.6208304 62.07703307 162.59840838 65.23535156 162.57202148 C66.16021362 162.57135681 67.08507568 162.57069214 68.03796387 162.57000732 C78.5324252 162.44950509 86.42170403 159.8822577 94.25 152.765625 C106.54813405 139.10103161 105.80800222 124.27565582 105.765625 106.828125 C105.76697535 104.85620069 105.76891896 102.8842767 105.77142334 100.91235352 C105.77435719 96.79733076 105.77013328 92.68239535 105.76074219 88.56738281 C105.74934877 83.32254582 105.75591761 78.07791361 105.76788712 72.83308411 C105.7751529 68.76646412 105.77279623 64.69989178 105.76763153 60.63327026 C105.76630805 58.70059179 105.76789649 56.76790882 105.77259064 54.8352356 C105.93054441 31.25051637 105.93054441 31.25051637 94.25 11.453125 C85.55967399 3.16767274 76.26466177 2.1187357 64.70605469 2.10449219 C63.73613083 2.09952728 62.76620697 2.09456238 61.76689148 2.08944702 C58.56854534 2.07488144 55.37024881 2.06803269 52.171875 2.0625 C49.93996175 2.05674388 47.7080485 2.05098621 45.47613525 2.04522705 C40.79902924 2.03473296 36.12194034 2.0288799 31.44482422 2.02539062 C25.46869458 2.01990971 19.49279321 1.99588332 13.51673508 1.96741867 C8.90632478 1.94874202 4.29596891 1.94358401 -0.31447601 1.94205475 C-2.5167643 1.93903899 -4.71905187 1.93104707 -6.9213028 1.91786957 C-10.01053458 1.90070418 -13.09921568 1.90271497 -16.18847656 1.90917969 C-17.53704491 1.89535751 -17.53704491 1.89535751 -18.91285706 1.8812561 C-31.95606243 1.96622412 -41.60090317 6.84504324 -49.85431671 16.90947056 Z " fill="#191919" transform="translate(75.5,17.734375)"/>
<path d="M0 0 C2.31 0 4.62 0 7 0 C7 14.52 7 29.04 7 44 C4.69 44 2.38 44 0 44 C0 42.68 0 41.36 0 40 C-2.43787385 40.1409349 -4.87517853 40.28754542 -7.3125 40.4375 C-8.00279297 40.47681641 -8.69308594 40.51613281 -9.40429688 40.55664062 C-12.47161535 40.74927415 -15.06968152 41.02322717 -18 42 C-18.66 44.31 -19.32 46.62 -20 49 C-31.22 49 -42.44 49 -54 49 C-54 34.6691519 -50.00891898 25.24251246 -40.125 15.0703125 C-33.21670134 8.57985448 -24.86018918 3.84063981 -15.234375 3.90234375 C-14.34492187 3.90556641 -13.45546875 3.90878906 -12.5390625 3.91210938 C-11.61867187 3.92048828 -10.69828125 3.92886719 -9.75 3.9375 C-8.81414062 3.94201172 -7.87828125 3.94652344 -6.9140625 3.95117188 C-4.60930959 3.96293082 -2.30468773 3.97936574 0 4 C0 2.68 0 1.36 0 0 Z " fill="#020202" transform="translate(137,50)"/>
<path d="M0 0 C1.97682043 0.003738 3.95364274 0.00658125 5.9304657 0.00857544 C11.09082304 0.01614995 16.25106476 0.03574413 21.41137695 0.0579834 C26.69415728 0.07857625 31.97695659 0.08760568 37.25976562 0.09765625 C47.59380033 0.11899684 57.92774986 0.15305658 68.26171875 0.1953125 C65.64409476 2.81293649 63.78675195 2.4427123 60.22206116 2.47428894 C59.37534348 2.47173599 58.52862579 2.46918304 57.65625 2.46655273 C56.31928322 2.47439285 56.31928322 2.47439285 54.95530701 2.48239136 C53.01445278 2.49265194 51.07357089 2.49841533 49.13269043 2.50027275 C46.05480079 2.50392932 42.97723546 2.52064005 39.89941406 2.54103088 C31.14638322 2.59648718 22.39330279 2.62702515 13.64013672 2.65161133 C8.28849021 2.66755054 2.93706972 2.69784601 -2.41445923 2.73637581 C-4.44924506 2.74798048 -6.48407146 2.75395576 -8.51889038 2.75405693 C-11.3787162 2.75425053 -14.23792674 2.77263247 -17.09765625 2.79467773 C-17.92818008 2.79010056 -18.75870392 2.78552338 -19.61439514 2.7808075 C-30.57698994 2.91411839 -38.45685659 6.39371889 -46.42578125 13.75390625 C-53.59272806 21.2254483 -55.34638824 30.85158341 -55.22412109 40.86401367 C-55.22791779 41.86714096 -55.23171448 42.87026825 -55.23562622 43.90379333 C-55.24296767 47.18228569 -55.22174338 50.45986922 -55.19921875 53.73828125 C-55.19683091 56.03509925 -55.19592972 58.33191922 -55.19644165 60.6287384 C-55.19332485 65.42571363 -55.17684272 70.22238763 -55.14990234 75.01928711 C-55.1158669 81.15575564 -55.10827616 87.29189488 -55.10979271 93.42844677 C-55.10924799 98.16489277 -55.09826542 102.90126739 -55.08378983 107.63768959 C-55.07744517 109.90022556 -55.07348841 112.16276957 -55.07200241 114.42531395 C-55.06764786 117.58861352 -55.05010203 120.75156968 -55.02880859 123.91479492 C-55.02971497 124.84122803 -55.03062134 125.76766113 -55.03155518 126.72216797 C-54.97779985 132.20594055 -54.2789548 136.92688703 -52.73828125 142.1953125 C-53.39828125 142.5253125 -54.05828125 142.8553125 -54.73828125 143.1953125 C-55.39041417 145.21994505 -55.39041417 145.21994505 -55.73828125 147.1953125 C-59.2115325 138.73870076 -59.88848474 130.91057319 -59.88354492 121.84863281 C-59.88690353 120.94990448 -59.89026215 120.05117615 -59.89372253 119.12521362 C-59.90316699 116.17460725 -59.90517243 113.22405802 -59.90625 110.2734375 C-59.90946733 108.20611549 -59.91283175 106.13879371 -59.91633606 104.07147217 C-59.92231124 99.74425733 -59.92417764 95.41706242 -59.92358398 91.08984375 C-59.92348251 85.57138463 -59.93712701 80.05305459 -59.95435619 74.53462601 C-59.96552821 70.26555811 -59.96750159 65.99652089 -59.96697426 61.72743988 C-59.96814684 59.69427801 -59.9725276 57.66111516 -59.98030663 55.62796783 C-60.09002182 23.98894854 -60.09002182 23.98894854 -47.98828125 10.8828125 C-34.73182901 -1.52161823 -16.936767 -0.09491664 0 0 Z " fill="#4E4E4E" transform="translate(75.73828125,17.8046875)"/>
<path d="M0 0 C1.97682043 0.003738 3.95364274 0.00658125 5.9304657 0.00857544 C11.09082304 0.01614995 16.25106476 0.03574413 21.41137695 0.0579834 C26.69415728 0.07857625 31.97695659 0.08760568 37.25976562 0.09765625 C47.59380033 0.11899684 57.92774986 0.15305658 68.26171875 0.1953125 C65.64409476 2.81293649 63.78675195 2.4427123 60.22206116 2.47428894 C59.37534348 2.47173599 58.52862579 2.46918304 57.65625 2.46655273 C56.31928322 2.47439285 56.31928322 2.47439285 54.95530701 2.48239136 C53.01445278 2.49265194 51.07357089 2.49841533 49.13269043 2.50027275 C46.05480079 2.50392932 42.97723546 2.52064005 39.89941406 2.54103088 C31.14638322 2.59648718 22.39330279 2.62702515 13.64013672 2.65161133 C8.28849021 2.66755054 2.93706972 2.69784601 -2.41445923 2.73637581 C-4.44924506 2.74798048 -6.48407146 2.75395576 -8.51889038 2.75405693 C-11.3787162 2.75425053 -14.23792674 2.77263247 -17.09765625 2.79467773 C-17.92818008 2.79010056 -18.75870392 2.78552338 -19.61439514 2.7808075 C-30.57698994 2.91411839 -38.45685659 6.39371889 -46.42578125 13.75390625 C-50.45588676 17.95529125 -52.16432732 22.41775907 -53.87890625 27.9375 C-54.73828125 30.1953125 -54.73828125 30.1953125 -56.73828125 31.1953125 C-57.39600553 34.22465741 -57.39600553 34.22465741 -57.73828125 37.1953125 C-58.06828125 37.1953125 -58.39828125 37.1953125 -58.73828125 37.1953125 C-59.2811593 28.69022306 -56.89006551 21.81864905 -51.5390625 15.1796875 C-37.06786547 -0.76688103 -20.08240849 -0.11254537 0 0 Z " fill="#686868" transform="translate(75.73828125,17.8046875)"/>
<path d="M0 0 C0.33 0 0.66 0 1 0 C0.67 29.7 0.34 59.4 0 90 C-0.33 90 -0.66 90 -1 90 C-2.20277932 81.48696194 -2.163907 73.01053992 -2.16796875 64.43359375 C-2.17118814 62.8289436 -2.17455271 61.22429373 -2.17805481 59.61964417 C-2.18401467 56.27026692 -2.1858978 52.92091537 -2.18530273 49.5715332 C-2.18520092 45.29588588 -2.19888678 41.0204039 -2.21607494 36.7447958 C-2.22722873 33.43580884 -2.22922096 30.12686157 -2.22869301 26.81785774 C-2.22986673 25.24191782 -2.23425408 23.66597666 -2.24202538 22.09005547 C-2.30966508 6.96675542 -2.30966508 6.96675542 0 0 Z " fill="#0B0B0B" transform="translate(19,47)"/>
<path d="M0 0 C0 0.33 0 0.66 0 1 C-0.88671387 1.04487549 -1.77342773 1.08975098 -2.68701172 1.13598633 C-6.02378106 1.31076948 -9.35956903 1.49664262 -12.6953125 1.68969727 C-14.13029544 1.77054364 -15.56552439 1.8471531 -17.00097656 1.91918945 C-31.27230312 2.64071747 -42.03568067 4.5390721 -52.25 15.1875 C-55.35428373 18.94132136 -56.70934747 23.13447825 -58.140625 27.7421875 C-59 30 -59 30 -61 31 C-61.65772428 34.02934491 -61.65772428 34.02934491 -62 37 C-62.33 37 -62.66 37 -63 37 C-63.54287805 28.49491056 -61.15178426 21.62333655 -55.80078125 14.984375 C-40.26988125 -2.12993563 -21.51402793 -0.32692269 0 0 Z " fill="#535353" transform="translate(80,18)"/>
<path d="M0 0 C10.62683241 0.24281741 21.34206538 3.34206538 29 11 C36.9555414 20.98447142 40.22397093 30.05669231 40.0625 42.875 C40.05798828 43.56335937 40.05347656 44.25171875 40.04882812 44.9609375 C40.03716336 46.64066335 40.01923271 48.32034375 40 50 C39.67 50 39.34 50 39 50 C38.93941406 49.07058594 38.87882812 48.14117187 38.81640625 47.18359375 C38.20428448 38.05853115 38.20428448 38.05853115 37 29 C36.34 29 35.68 29 35 29 C34.79246094 28.3709375 34.58492187 27.741875 34.37109375 27.09375 C30.90740465 17.47078112 25.07936797 10.36305462 16.0625 5.375 C10.38634471 3.05639192 4.03921628 2.71197418 -2 2 C-1.34 1.34 -0.68 0.68 0 0 Z " fill="#313131" transform="translate(144,18)"/>
<path d="M0 0 C-11.42128257 4.06532435 -23.09771104 3.38178991 -35.046875 3.29296875 C-37.27174593 3.28736463 -39.4966206 3.2830984 -41.72149658 3.28010559 C-47.54116262 3.26872105 -53.36059949 3.23930955 -59.18017578 3.20599365 C-65.1331065 3.1751542 -71.0860747 3.16157074 -77.0390625 3.14648438 C-88.69280831 3.11443318 -100.346385 3.0633151 -112 3 C-112 2.67 -112 2.34 -112 2 C-110.78921783 1.98969254 -109.57843567 1.97938507 -108.33096313 1.96876526 C-96.94123802 1.87116705 -85.55156921 1.76844607 -74.16193581 1.66066074 C-68.30589332 1.60540831 -62.44984587 1.5519846 -56.59375 1.50268555 C-50.94625767 1.45507623 -45.29882752 1.40273469 -39.65140915 1.34705925 C-37.49277665 1.32662012 -35.33412709 1.30790966 -33.17546463 1.29092598 C-30.160696 1.26691645 -27.14604561 1.2368572 -24.13134766 1.20532227 C-23.23151657 1.1995668 -22.33168549 1.19381134 -21.40458679 1.18788147 C-17.06538294 1.26629518 -17.06538294 1.26629518 -13 0 C-11.54860491 -0.25217289 -10.08827997 -0.45485117 -8.625 -0.625 C-7.85414063 -0.72039062 -7.08328125 -0.81578125 -6.2890625 -0.9140625 C-3.96070211 -1.00147535 -2.23210595 -0.60747559 0 0 Z " fill="#2F2F2F" transform="translate(162,183)"/>
<path d="M0 0 C0.99 0.33 1.98 0.66 3 1 C2.20335937 1.78310547 2.20335937 1.78310547 1.390625 2.58203125 C-3.48989112 7.66738655 -6.20027542 12.04765561 -8.2109375 18.8125 C-9 21 -9 21 -11 22 C-11.65772428 25.02934491 -11.65772428 25.02934491 -12 28 C-12.33 28 -12.66 28 -13 28 C-13.61764399 18.32357748 -10.26429404 11.24564559 -4 4 C-2.70128156 2.63292796 -1.38555866 1.27897723 0 0 Z " fill="#2F2F2F" transform="translate(30,27)"/>
<path d="M0 0 C11.06229329 0.25276745 20.75123282 3.57610954 29 11 C28.67 11.99 28.34 12.98 28 14 C27.59910156 13.61328125 27.19820312 13.2265625 26.78515625 12.828125 C18.14935684 4.91687112 9.48308714 3.24141483 -2 2 C-1.34 1.34 -0.68 0.68 0 0 Z " fill="#484848" transform="translate(144,18)"/>
<path d="M0 0 C0.99 0 1.98 0 3 0 C4.50717296 6.90787608 3.3284547 10.82878785 0 17 C-2.13733164 10.58800507 -1.7059556 6.47135222 0 0 Z " fill="#272727" transform="translate(179,150)"/>
<path d="M0 0 C0.33 0 0.66 0 1 0 C1.40820882 10.09182907 0.16108676 19.99599356 -1 30 C-1.33 30 -1.66 30 -2 30 C-2.05869332 26.50007197 -2.09382709 23.0002728 -2.125 19.5 C-2.14175781 18.51773438 -2.15851562 17.53546875 -2.17578125 16.5234375 C-2.21499874 10.64081335 -1.70432638 5.63635497 0 0 Z " fill="#111111" transform="translate(19,47)"/>
<path d="M0 0 C5.75 1.625 5.75 1.625 8 5 C10.55183404 6.20450304 10.55183404 6.20450304 13 7 C13 7.66 13 8.32 13 9 C17.455 9.99 17.455 9.99 22 11 C16.0677847 12.48305383 12.23544372 9.83847006 7.08203125 6.91015625 C5.4375 5.875 5.4375 5.875 3 4 C3 3.34 3 2.68 3 2 C2.01 1.67 1.02 1.34 0 1 C0 0.67 0 0.34 0 0 Z " fill="#3D3D3D" transform="translate(26,173)"/>
<path d="M0 0 C0.33 0 0.66 0 1 0 C2.61626656 5.05247553 3.34166823 9.6014184 3.625 14.9375 C3.66367188 15.62134766 3.70234375 16.30519531 3.7421875 17.00976562 C3.83522412 18.67279513 3.91863787 20.33635847 4 22 C3.34 22 2.68 22 2 22 C-0.29612756 7.40318907 -0.29612756 7.40318907 0 0 Z " fill="#111111" transform="translate(180,47)"/>
<path d="M0 0 C-7.17859349 2.04061541 -13.52605426 3.37369729 -21 3 C-21 2.67 -21 2.34 -21 2 C-6.51305903 -1.9509839 -6.51305903 -1.9509839 0 0 Z " fill="#3B3B3B" transform="translate(162,183)"/>
<path d="M0 0 C0.99 0.495 0.99 0.495 2 1 C2.625 3.0625 2.625 3.0625 3 5 C3.66 4.34 4.32 3.68 5 3 C5.33 4.65 5.66 6.3 6 8 C5.01 8.495 5.01 8.495 4 9 C3.34786708 11.02463255 3.34786708 11.02463255 3 13 C-0.42857143 4.57142857 -0.42857143 4.57142857 0 0 Z " fill="#343434" transform="translate(17,152)"/>
<path d="M0 0 C4.20626034 1.50223584 5.73900021 4.28550034 8 8 C7.67 8.66 7.34 9.32 7 10 C6.34 10 5.68 10 5 10 C3.7109375 8.3203125 3.7109375 8.3203125 2.375 6.125 C1.92898437 5.40570313 1.48296875 4.68640625 1.0234375 3.9453125 C0 2 0 2 0 0 Z " fill="#373737" transform="translate(172,31)"/>
<path d="M0 0 C0.99 0.33 1.98 0.66 3 1 C1.90653119 2.34212062 0.7998425 3.67347975 -0.3125 5 C-1.23482422 6.11375 -1.23482422 6.11375 -2.17578125 7.25 C-4 9 -4 9 -7 9 C-5.44499019 5.18315774 -2.96404505 2.80804268 0 0 Z " fill="#3A3A3A" transform="translate(30,27)"/>
<path d="M0 0 C0.66 0 1.32 0 2 0 C2.33 3.63 2.66 7.26 3 11 C2.01 11.495 2.01 11.495 1 12 C0.01751476 7.9472484 -0.08159574 4.16138263 0 0 Z " fill="#0A0A0A" transform="translate(18,146)"/>
</svg>
