<?xml version="1.0" encoding="UTF-8"?>
<svg version="1.1" xmlns="http://www.w3.org/2000/svg" width="200" height="200">
<path d="M0 0 C1.14793533 -0.00860046 2.29587067 -0.01720093 3.47859192 -0.02606201 C5.36973724 -0.03245193 5.36973724 -0.03245193 7.29908752 -0.03897095 C8.63965059 -0.04687452 9.98021154 -0.05514363 11.32077026 -0.06375122 C15.7270149 -0.08995807 20.13326893 -0.10528489 24.53956604 -0.11953735 C26.05953031 -0.12489898 27.57949453 -0.13027649 29.09945869 -0.13566971 C35.42780326 -0.15730305 41.7561453 -0.17603489 48.08451748 -0.1872921 C57.1334978 -0.20349718 66.18204639 -0.23658532 75.23086399 -0.29369295 C81.60303372 -0.33252526 87.97508867 -0.35194085 94.34737355 -0.35721266 C98.14740222 -0.36085015 101.94697031 -0.37269722 105.74687004 -0.4053154 C109.32984447 -0.43562866 112.91208537 -0.44162661 116.49516106 -0.42993164 C118.41804298 -0.4296094 120.34088121 -0.45392347 122.26359558 -0.47930908 C133.73507542 -0.39797935 144.03922321 3.17261011 152.48097229 11.15390015 C155.52622951 14.62914533 157.64676178 18.13153514 159.66847229 22.27890015 C160.43224182 23.82964233 160.43224182 23.82964233 161.21144104 25.41171265 C163.05611785 29.39621456 163.61060296 32.32056113 163.63487244 36.67292786 C163.6434729 37.82086319 163.65207336 38.96879852 163.66093445 40.15151978 C163.66732437 42.0426651 163.66732437 42.0426651 163.67384338 43.97201538 C163.68174695 45.31257844 163.69001606 46.65313939 163.69862366 47.99369812 C163.72483051 52.39994276 163.74015733 56.80619679 163.75440979 61.2124939 C163.75977141 62.73245817 163.76514893 64.25242239 163.77054214 65.77238655 C163.79217549 72.10073111 163.81090733 78.42907315 163.82216454 84.75744534 C163.83836962 93.80642565 163.87145775 102.85497424 163.92856538 111.90379184 C163.9673977 118.27596158 163.98681329 124.64801653 163.9920851 131.0203014 C163.99572258 134.82033007 164.00756966 138.61989816 164.04018784 142.4197979 C164.0705011 146.00277233 164.07649905 149.58501323 164.06480408 153.16808891 C164.06448183 155.09097084 164.08879591 157.01380906 164.11418152 158.93652344 C164.03285179 170.40800328 160.46226233 180.71215107 152.48097229 189.15390015 C149.0057271 192.19915737 145.50333729 194.31968964 141.35597229 196.34140015 C140.32214417 196.85057983 139.28831604 197.35975952 138.22315979 197.8843689 C134.23865788 199.72904571 131.31431131 200.28353081 126.96194458 200.30780029 C125.81400925 200.31640076 124.66607391 200.32500122 123.48335266 200.3338623 C122.22258911 200.33812225 120.96182556 200.3423822 119.66285706 200.34677124 C118.32229399 200.35467481 116.98173304 200.36294392 115.64117432 200.37155151 C111.23492968 200.39775836 106.82867565 200.41308519 102.42237854 200.42733765 C100.90241427 200.43269927 99.38245005 200.43807679 97.86248589 200.44347 C91.53414132 200.46510334 85.20579928 200.48383518 78.8774271 200.49509239 C69.82844678 200.51129747 60.77989819 200.54438561 51.73108059 200.60149324 C45.35891086 200.64032556 38.98685591 200.65974114 32.61457103 200.66501296 C28.81454236 200.66865044 25.01497427 200.68049752 21.21507454 200.71311569 C17.63210011 200.74342895 14.04985921 200.7494269 10.46678352 200.73773193 C8.5439016 200.73740969 6.62106337 200.76172377 4.698349 200.78710938 C-6.77313084 200.70577964 -17.07727863 197.13519018 -25.51902771 189.15390015 C-28.56428493 185.67865496 -30.6848172 182.17626515 -32.70652771 178.02890015 C-33.2157074 176.99507202 -33.72488708 175.9612439 -34.24949646 174.89608765 C-36.09417327 170.91158573 -36.64865838 167.98723916 -36.67292786 163.63487244 C-36.68152832 162.4869371 -36.69012878 161.33900177 -36.69898987 160.15628052 C-36.70324982 158.89551697 -36.70750977 157.63475342 -36.7118988 156.33578491 C-36.71980237 154.99522185 -36.72807148 153.6546609 -36.73667908 152.31410217 C-36.76288593 147.90785753 -36.77821275 143.5016035 -36.79246521 139.0953064 C-36.79782683 137.57534212 -36.80320435 136.0553779 -36.80859756 134.53541374 C-36.83023091 128.20706918 -36.84896275 121.87872714 -36.86021996 115.55035496 C-36.87642504 106.50137464 -36.90951317 97.45282605 -36.9666208 88.40400845 C-37.00545312 82.03183872 -37.02486871 75.65978376 -37.03014052 69.28749889 C-37.033778 65.48747022 -37.04562508 61.68790213 -37.07824326 57.8880024 C-37.10855652 54.30502796 -37.11455447 50.72278707 -37.1028595 47.13971138 C-37.10253725 45.21682946 -37.12685133 43.29399123 -37.15223694 41.37127686 C-37.07090721 29.89979702 -33.50031775 19.59564922 -25.51902771 11.15390015 C-22.04378252 8.10864292 -18.54139271 5.98811066 -14.39402771 3.96640015 C-13.36019958 3.45722046 -12.32637146 2.94804077 -11.26121521 2.4234314 C-7.2767133 0.57875458 -4.35236673 0.02426948 0 0 Z " fill="#3B81F5" transform="translate(36.51902770996094,-0.153900146484375)"/>
<path d="M0 0 C3.80885522 2.51222366 6.32786101 5.44882277 8.8359375 9.2109375 C8.8359375 10.5309375 8.8359375 11.8509375 8.8359375 13.2109375 C4.79796725 14.55692758 1.05940815 14.79270358 -3.1640625 14.2109375 C-3.9271875 13.5509375 -4.6903125 12.8909375 -5.4765625 12.2109375 C-9.84960213 8.95658242 -14.88893344 9.75255734 -20.1640625 10.2109375 C-21.1540625 10.5409375 -22.1440625 10.8709375 -23.1640625 11.2109375 C-22.76401632 14.17072382 -22.76401632 14.17072382 -21.1640625 17.2109375 C-18.41055085 18.58769333 -16.107081 19.38739397 -13.1640625 20.2109375 C-11.16483352 20.7811625 -9.16890257 21.35997237 -7.17626953 21.95288086 C-5.78068349 22.36626384 -4.3806276 22.7649227 -2.97607422 23.14672852 C2.60294022 24.77999144 6.69844343 27.29617286 10.2109375 32.0859375 C11.37911076 36.05772657 11.63077713 39.45375072 9.890625 43.30078125 C6.11855681 49.67059452 2.0691314 53.25489542 -5.1640625 55.2109375 C-8.12759229 55.51114933 -11.06218932 55.53586185 -14.0390625 55.5234375 C-15.18568359 55.54760742 -15.18568359 55.54760742 -16.35546875 55.57226562 C-22.79301097 55.57773043 -28.40604737 54.51480263 -33.44140625 50.30859375 C-34.26318359 49.30119141 -34.26318359 49.30119141 -35.1015625 48.2734375 C-35.95041016 47.26990234 -35.95041016 47.26990234 -36.81640625 46.24609375 C-38.1734379 44.19677929 -38.73932102 42.61422158 -39.1640625 40.2109375 C-34.63756348 37.60793922 -30.27517612 37.36598841 -25.1640625 38.2109375 C-22.1640625 40.6484375 -22.1640625 40.6484375 -20.1640625 43.2109375 C-16.97964298 44.80314726 -13.630347 44.6085992 -10.1640625 44.2109375 C-7.2385981 42.8600087 -7.2385981 42.8600087 -5.1640625 41.2109375 C-5.19499423 38.79508176 -5.19499423 38.79508176 -6.1640625 36.2109375 C-9.95936403 33.46988639 -14.03939521 32.7755432 -18.5390625 31.8359375 C-25.61155334 30.30194976 -31.31956802 27.69949772 -36.1640625 22.2109375 C-37.52088699 18.14046403 -37.68878504 14.46702033 -37.1640625 10.2109375 C-34.18152648 4.35632976 -29.5926194 0.19016354 -23.44140625 -2.24609375 C-15.59347815 -4.11721211 -7.18422462 -3.76570881 0 0 Z " fill="#FAFCFE" transform="translate(134.1640625,80.7890625)"/>
<path d="M0 0 C4.62 0 9.24 0 14 0 C14 4.62 14 9.24 14 14 C17.96 14 21.92 14 26 14 C26 17.63 26 21.26 26 25 C22.04 25 18.08 25 14 25 C14.09374801 29.19960604 14.19988805 33.39866312 14.31738281 37.59765625 C14.35560024 39.02530398 14.39046572 40.45304563 14.421875 41.88085938 C14.46768401 43.93653868 14.5256498 45.99157554 14.5859375 48.046875 C14.63306885 49.90070801 14.63306885 49.90070801 14.68115234 51.79199219 C14.97934671 54.79220195 15.20486864 56.59330818 17 59 C19.32156597 59.40729228 21.6568787 59.74438677 24 60 C25.20272819 62.40545638 25.10071472 63.94996953 25.0625 66.625 C25.05347656 67.44226563 25.04445312 68.25953125 25.03515625 69.1015625 C25.02355469 69.72804688 25.01195312 70.35453125 25 71 C22.45716766 71.10871967 19.91904912 71.18762401 17.375 71.25 C16.66214844 71.28351563 15.94929688 71.31703125 15.21484375 71.3515625 C10.00501073 71.44715577 7.12713295 70.44861486 3 67 C-0.83414869 60.9182469 -1.12776399 54.89677413 -1.09765625 47.8515625 C-1.0962413 47.19417084 -1.09482635 46.53677917 -1.09336853 45.85946655 C-1.08781762 43.78126269 -1.07527465 41.70317073 -1.0625 39.625 C-1.05747864 38.20703282 -1.05291685 36.78906393 -1.04882812 35.37109375 C-1.03786437 31.91402678 -1.02063421 28.45702433 -1 25 C-1.969375 25.020625 -2.93875 25.04125 -3.9375 25.0625 C-7 25 -7 25 -8 24 C-8.0979057 22.50261876 -8.12974864 21.00057108 -8.125 19.5 C-8.12757812 18.6853125 -8.13015625 17.870625 -8.1328125 17.03125 C-8 15 -8 15 -7 14 C-5.02 14 -3.04 14 -1 14 C-0.67 9.38 -0.34 4.76 0 0 Z " fill="#F9FBFE" transform="translate(63,65)"/>
<path d="M0 0 C2.66346536 2.1437648 3.7026198 3.58458461 4.40625 6.93359375 C4.7206953 11.09213286 4.3257515 12.59709683 1.625 15.9375 C-2.16080728 18.91206287 -4.17180697 19.47335226 -9 19 C-11.69990662 17.20006226 -13.5418865 15.916227 -15 13 C-15.5811138 5.91041162 -15.5811138 5.91041162 -13.125 2.0625 C-9.05289345 -1.88983871 -5.28514995 -1.34240931 0 0 Z " fill="#F8FAFE" transform="translate(39,27)"/>
</svg>
